<mxfile host="app.diagrams.net" modified="2021-10-24T11:14:50.166Z" agent="5.0 (Windows NT 10.0; WOW64) AppleWebKit/537.36 (KHTML, like Gecko) Chrome/80.0.3987.132 YaBrowser/20.3.1.253 Yowser/2.5 Safari/537.36" etag="EJfI2vzFKYbzQg_NxXlj" version="14.5.6" type="github">
  <diagram id="1AKOmLiHb0T1GY8dSjtn" name="Page-1">
    <mxGraphModel dx="1817" dy="1899" grid="1" gridSize="10" guides="1" tooltips="1" connect="1" arrows="1" fold="1" page="1" pageScale="1" pageWidth="827" pageHeight="1169" math="0" shadow="0">
      <root>
        <mxCell id="0" />
        <mxCell id="1" parent="0" />
        <mxCell id="HJ1KMDWT780nta9G588y-94" value="" style="endArrow=none;html=1;" parent="1" edge="1">
          <mxGeometry width="50" height="50" relative="1" as="geometry">
            <mxPoint x="95" y="585" as="sourcePoint" />
            <mxPoint x="1400" y="585" as="targetPoint" />
          </mxGeometry>
        </mxCell>
        <mxCell id="HJ1KMDWT780nta9G588y-93" value="" style="endArrow=none;html=1;" parent="1" edge="1">
          <mxGeometry width="50" height="50" relative="1" as="geometry">
            <mxPoint x="100" y="520" as="sourcePoint" />
            <mxPoint x="750" y="520" as="targetPoint" />
          </mxGeometry>
        </mxCell>
        <mxCell id="HJ1KMDWT780nta9G588y-1" value="" style="rounded=0;whiteSpace=wrap;html=1;" parent="1" vertex="1">
          <mxGeometry x="40" y="40" width="120" height="420" as="geometry" />
        </mxCell>
        <mxCell id="HJ1KMDWT780nta9G588y-2" value="" style="rounded=0;whiteSpace=wrap;html=1;" parent="1" vertex="1">
          <mxGeometry x="200" y="40" width="120" height="420" as="geometry" />
        </mxCell>
        <mxCell id="HJ1KMDWT780nta9G588y-6" value="" style="rounded=0;whiteSpace=wrap;html=1;" parent="1" vertex="1">
          <mxGeometry x="360" y="40" width="120" height="180" as="geometry" />
        </mxCell>
        <mxCell id="HJ1KMDWT780nta9G588y-7" value="" style="rounded=0;whiteSpace=wrap;html=1;" parent="1" vertex="1">
          <mxGeometry x="360" y="280" width="120" height="180" as="geometry" />
        </mxCell>
        <mxCell id="HJ1KMDWT780nta9G588y-8" value="" style="rounded=0;whiteSpace=wrap;html=1;" parent="1" vertex="1">
          <mxGeometry x="510" y="40" width="120" height="180" as="geometry" />
        </mxCell>
        <mxCell id="HJ1KMDWT780nta9G588y-9" value="" style="rounded=0;whiteSpace=wrap;html=1;" parent="1" vertex="1">
          <mxGeometry x="670" y="35" width="120" height="180" as="geometry" />
        </mxCell>
        <mxCell id="vRpasQC0jQgQnMMgfVWq-15" style="edgeStyle=orthogonalEdgeStyle;rounded=1;orthogonalLoop=1;jettySize=auto;html=1;exitX=0.5;exitY=0;exitDx=0;exitDy=0;strokeColor=#007FFF;" edge="1" parent="1" source="HJ1KMDWT780nta9G588y-10">
          <mxGeometry relative="1" as="geometry">
            <mxPoint x="700" y="130" as="targetPoint" />
            <Array as="points">
              <mxPoint x="570" y="130" />
            </Array>
          </mxGeometry>
        </mxCell>
        <mxCell id="HJ1KMDWT780nta9G588y-10" value="" style="rounded=0;whiteSpace=wrap;html=1;" parent="1" vertex="1">
          <mxGeometry x="510" y="280" width="120" height="180" as="geometry" />
        </mxCell>
        <mxCell id="HJ1KMDWT780nta9G588y-11" value="" style="rounded=0;whiteSpace=wrap;html=1;" parent="1" vertex="1">
          <mxGeometry x="660" y="280" width="120" height="180" as="geometry" />
        </mxCell>
        <mxCell id="HJ1KMDWT780nta9G588y-12" value="" style="rounded=0;whiteSpace=wrap;html=1;" parent="1" vertex="1">
          <mxGeometry x="827" y="40" width="120" height="180" as="geometry" />
        </mxCell>
        <mxCell id="HJ1KMDWT780nta9G588y-13" value="" style="rounded=0;whiteSpace=wrap;html=1;" parent="1" vertex="1">
          <mxGeometry x="827" y="280" width="120" height="180" as="geometry" />
        </mxCell>
        <mxCell id="HJ1KMDWT780nta9G588y-14" value="" style="rounded=0;whiteSpace=wrap;html=1;" parent="1" vertex="1">
          <mxGeometry x="977" y="40" width="120" height="180" as="geometry" />
        </mxCell>
        <mxCell id="HJ1KMDWT780nta9G588y-15" value="" style="rounded=0;whiteSpace=wrap;html=1;" parent="1" vertex="1">
          <mxGeometry x="1127" y="40" width="120" height="180" as="geometry" />
        </mxCell>
        <mxCell id="HJ1KMDWT780nta9G588y-16" value="" style="rounded=0;whiteSpace=wrap;html=1;" parent="1" vertex="1">
          <mxGeometry x="980" y="275" width="120" height="180" as="geometry" />
        </mxCell>
        <mxCell id="HJ1KMDWT780nta9G588y-17" value="&#xa;&#xa;&lt;span style=&quot;color: rgb(0, 0, 0); font-size: 13px; font-style: normal; font-weight: 400; letter-spacing: normal; text-align: left; text-indent: 0px; text-transform: none; word-spacing: 0px; background-color: rgb(240, 242, 245); display: inline; float: none;&quot;&gt;DB1&lt;/span&gt;&#xa;&#xa;" style="rounded=0;whiteSpace=wrap;html=1;" parent="1" vertex="1">
          <mxGeometry x="1127" y="280" width="120" height="180" as="geometry" />
        </mxCell>
        <mxCell id="HJ1KMDWT780nta9G588y-18" value="" style="rounded=0;whiteSpace=wrap;html=1;" parent="1" vertex="1">
          <mxGeometry x="1320" y="40" width="120" height="180" as="geometry" />
        </mxCell>
        <mxCell id="HJ1KMDWT780nta9G588y-19" value="" style="rounded=0;whiteSpace=wrap;html=1;" parent="1" vertex="1">
          <mxGeometry x="1320" y="280" width="120" height="180" as="geometry" />
        </mxCell>
        <mxCell id="HJ1KMDWT780nta9G588y-22" value="&lt;h1&gt;сеть клиента&lt;/h1&gt;" style="text;html=1;strokeColor=none;fillColor=none;spacing=5;spacingTop=-20;whiteSpace=wrap;overflow=hidden;rounded=0;align=center;" parent="1" vertex="1">
          <mxGeometry x="30" y="50" width="140" height="60" as="geometry" />
        </mxCell>
        <mxCell id="HJ1KMDWT780nta9G588y-23" value="&lt;h1&gt;&lt;font color=&quot;#222222&quot;&gt;&lt;span style=&quot;background-color: rgb(204 , 228 , 247)&quot;&gt;интернет&lt;/span&gt;&lt;/font&gt;&lt;/h1&gt;" style="text;html=1;strokeColor=none;fillColor=none;spacing=5;spacingTop=-20;whiteSpace=wrap;overflow=hidden;rounded=0;align=center;" parent="1" vertex="1">
          <mxGeometry x="190" y="50" width="140" height="60" as="geometry" />
        </mxCell>
        <mxCell id="HJ1KMDWT780nta9G588y-24" value="" style="fontColor=#0066CC;verticalAlign=top;verticalLabelPosition=bottom;labelPosition=center;align=center;html=1;outlineConnect=0;fillColor=#CCCCCC;strokeColor=#6881B3;gradientColor=none;gradientDirection=north;strokeWidth=2;shape=mxgraph.networks.proxy_server;" parent="1" vertex="1">
          <mxGeometry x="387" y="310" width="53" height="43" as="geometry" />
        </mxCell>
        <mxCell id="HJ1KMDWT780nta9G588y-25" value="" style="fontColor=#0066CC;verticalAlign=top;verticalLabelPosition=bottom;labelPosition=center;align=center;html=1;outlineConnect=0;fillColor=#CCCCCC;strokeColor=#6881B3;gradientColor=none;gradientDirection=north;strokeWidth=2;shape=mxgraph.networks.web_server;" parent="1" vertex="1">
          <mxGeometry x="387" y="380" width="53" height="55" as="geometry" />
        </mxCell>
        <mxCell id="HJ1KMDWT780nta9G588y-26" value="" style="fontColor=#0066CC;verticalAlign=top;verticalLabelPosition=bottom;labelPosition=center;align=center;html=1;outlineConnect=0;fillColor=#CCCCCC;strokeColor=#6881B3;gradientColor=none;gradientDirection=north;strokeWidth=2;shape=mxgraph.networks.server;" parent="1" vertex="1">
          <mxGeometry x="540" y="330" width="60" height="70" as="geometry" />
        </mxCell>
        <mxCell id="HJ1KMDWT780nta9G588y-28" value="" style="fontColor=#0066CC;verticalAlign=top;verticalLabelPosition=bottom;labelPosition=center;align=center;html=1;outlineConnect=0;fillColor=#CCCCCC;strokeColor=#6881B3;gradientColor=none;gradientDirection=north;strokeWidth=2;shape=mxgraph.networks.pc;" parent="1" vertex="1">
          <mxGeometry x="1330" y="95" width="100" height="70" as="geometry" />
        </mxCell>
        <mxCell id="vRpasQC0jQgQnMMgfVWq-26" style="edgeStyle=orthogonalEdgeStyle;rounded=1;orthogonalLoop=1;jettySize=auto;html=1;exitX=0;exitY=0;exitDx=0;exitDy=0;exitPerimeter=0;strokeColor=#007FFF;" edge="1" parent="1" source="HJ1KMDWT780nta9G588y-29" target="vRpasQC0jQgQnMMgfVWq-20">
          <mxGeometry relative="1" as="geometry">
            <mxPoint x="750" y="120" as="targetPoint" />
            <Array as="points">
              <mxPoint x="1350" y="225" />
              <mxPoint x="730" y="225" />
            </Array>
          </mxGeometry>
        </mxCell>
        <mxCell id="HJ1KMDWT780nta9G588y-29" value="" style="fontColor=#0066CC;verticalAlign=top;verticalLabelPosition=bottom;labelPosition=center;align=center;html=1;outlineConnect=0;fillColor=#CCCCCC;strokeColor=#6881B3;gradientColor=none;gradientDirection=north;strokeWidth=2;shape=mxgraph.networks.pc;" parent="1" vertex="1">
          <mxGeometry x="1350" y="330" width="80" height="70" as="geometry" />
        </mxCell>
        <mxCell id="HJ1KMDWT780nta9G588y-30" value="" style="fontColor=#0066CC;verticalAlign=top;verticalLabelPosition=bottom;labelPosition=center;align=center;html=1;outlineConnect=0;fillColor=#CCCCCC;strokeColor=#6881B3;gradientColor=none;gradientDirection=north;strokeWidth=2;shape=mxgraph.networks.server;" parent="1" vertex="1">
          <mxGeometry x="1163" y="343.75" width="48" height="52.5" as="geometry" />
        </mxCell>
        <mxCell id="HJ1KMDWT780nta9G588y-31" value="" style="fontColor=#0066CC;verticalAlign=top;verticalLabelPosition=bottom;labelPosition=center;align=center;html=1;outlineConnect=0;fillColor=#CCCCCC;strokeColor=#6881B3;gradientColor=none;gradientDirection=north;strokeWidth=2;shape=mxgraph.networks.server;" parent="1" vertex="1">
          <mxGeometry x="1016" y="343.75" width="48" height="52.5" as="geometry" />
        </mxCell>
        <mxCell id="HJ1KMDWT780nta9G588y-32" value="" style="fontColor=#0066CC;verticalAlign=top;verticalLabelPosition=bottom;labelPosition=center;align=center;html=1;outlineConnect=0;fillColor=#CCCCCC;strokeColor=#6881B3;gradientColor=none;gradientDirection=north;strokeWidth=2;shape=mxgraph.networks.proxy_server;" parent="1" vertex="1">
          <mxGeometry x="860" y="302.5" width="53" height="43" as="geometry" />
        </mxCell>
        <mxCell id="HJ1KMDWT780nta9G588y-33" value="" style="fontColor=#0066CC;verticalAlign=top;verticalLabelPosition=bottom;labelPosition=center;align=center;html=1;outlineConnect=0;fillColor=#CCCCCC;strokeColor=#6881B3;gradientColor=none;gradientDirection=north;strokeWidth=2;shape=mxgraph.networks.web_server;" parent="1" vertex="1">
          <mxGeometry x="860" y="372.5" width="53" height="55" as="geometry" />
        </mxCell>
        <mxCell id="HJ1KMDWT780nta9G588y-34" value="" style="fontColor=#0066CC;verticalAlign=top;verticalLabelPosition=bottom;labelPosition=center;align=center;html=1;outlineConnect=0;fillColor=#CCCCCC;strokeColor=#6881B3;gradientColor=none;gradientDirection=north;strokeWidth=2;shape=mxgraph.networks.storage;" parent="1" vertex="1">
          <mxGeometry x="705" y="350" width="50" height="55" as="geometry" />
        </mxCell>
        <mxCell id="HJ1KMDWT780nta9G588y-35" value="" style="fontColor=#0066CC;verticalAlign=top;verticalLabelPosition=bottom;labelPosition=center;align=center;html=1;outlineConnect=0;fillColor=#CCCCCC;strokeColor=#6881B3;gradientColor=none;gradientDirection=north;strokeWidth=2;shape=mxgraph.networks.users;" parent="1" vertex="1">
          <mxGeometry x="55" y="210" width="90" height="100" as="geometry" />
        </mxCell>
        <mxCell id="HJ1KMDWT780nta9G588y-36" value="" style="fontColor=#0066CC;verticalAlign=top;verticalLabelPosition=bottom;labelPosition=center;align=center;html=1;outlineConnect=0;fillColor=#CCCCCC;strokeColor=#6881B3;gradientColor=none;gradientDirection=north;strokeWidth=2;shape=mxgraph.networks.router;" parent="1" vertex="1">
          <mxGeometry x="220" y="510" width="100" height="30" as="geometry" />
        </mxCell>
        <mxCell id="HJ1KMDWT780nta9G588y-37" value="" style="fontColor=#0066CC;verticalAlign=top;verticalLabelPosition=bottom;labelPosition=center;align=center;html=1;outlineConnect=0;fillColor=#CCCCCC;strokeColor=#6881B3;gradientColor=none;gradientDirection=north;strokeWidth=2;shape=mxgraph.networks.router;" parent="1" vertex="1">
          <mxGeometry x="220" y="510" width="100" height="30" as="geometry" />
        </mxCell>
        <mxCell id="HJ1KMDWT780nta9G588y-38" value="" style="fontColor=#0066CC;verticalAlign=top;verticalLabelPosition=bottom;labelPosition=center;align=center;html=1;outlineConnect=0;fillColor=#CCCCCC;strokeColor=#6881B3;gradientColor=none;gradientDirection=north;strokeWidth=2;shape=mxgraph.networks.router;" parent="1" vertex="1">
          <mxGeometry x="620" y="510" width="100" height="30" as="geometry" />
        </mxCell>
        <mxCell id="HJ1KMDWT780nta9G588y-39" value="" style="fontColor=#0066CC;verticalAlign=top;verticalLabelPosition=bottom;labelPosition=center;align=center;html=1;outlineConnect=0;fillColor=#CCCCCC;strokeColor=#6881B3;gradientColor=none;gradientDirection=north;strokeWidth=2;shape=mxgraph.networks.router;" parent="1" vertex="1">
          <mxGeometry x="420" y="510" width="100" height="30" as="geometry" />
        </mxCell>
        <mxCell id="HJ1KMDWT780nta9G588y-40" value="" style="fontColor=#0066CC;verticalAlign=top;verticalLabelPosition=bottom;labelPosition=center;align=center;html=1;outlineConnect=0;fillColor=#CCCCCC;strokeColor=#6881B3;gradientColor=none;gradientDirection=north;strokeWidth=2;shape=mxgraph.networks.router;" parent="1" vertex="1">
          <mxGeometry x="220" y="570" width="100" height="30" as="geometry" />
        </mxCell>
        <mxCell id="HJ1KMDWT780nta9G588y-41" value="" style="fontColor=#0066CC;verticalAlign=top;verticalLabelPosition=bottom;labelPosition=center;align=center;html=1;outlineConnect=0;fillColor=#CCCCCC;strokeColor=#6881B3;gradientColor=none;gradientDirection=north;strokeWidth=2;shape=mxgraph.networks.router;" parent="1" vertex="1">
          <mxGeometry x="420" y="570" width="100" height="30" as="geometry" />
        </mxCell>
        <mxCell id="HJ1KMDWT780nta9G588y-42" value="" style="fontColor=#0066CC;verticalAlign=top;verticalLabelPosition=bottom;labelPosition=center;align=center;html=1;outlineConnect=0;fillColor=#CCCCCC;strokeColor=#6881B3;gradientColor=none;gradientDirection=north;strokeWidth=2;shape=mxgraph.networks.router;" parent="1" vertex="1">
          <mxGeometry x="620" y="580" width="100" height="30" as="geometry" />
        </mxCell>
        <mxCell id="HJ1KMDWT780nta9G588y-43" value="" style="fontColor=#0066CC;verticalAlign=top;verticalLabelPosition=bottom;labelPosition=center;align=center;html=1;outlineConnect=0;fillColor=#CCCCCC;strokeColor=#6881B3;gradientColor=none;gradientDirection=north;strokeWidth=2;shape=mxgraph.networks.firewall;" parent="1" vertex="1">
          <mxGeometry x="350" y="490" width="50" height="50" as="geometry" />
        </mxCell>
        <mxCell id="HJ1KMDWT780nta9G588y-44" value="" style="fontColor=#0066CC;verticalAlign=top;verticalLabelPosition=bottom;labelPosition=center;align=center;html=1;outlineConnect=0;fillColor=#CCCCCC;strokeColor=#6881B3;gradientColor=none;gradientDirection=north;strokeWidth=2;shape=mxgraph.networks.firewall;" parent="1" vertex="1">
          <mxGeometry x="350" y="560" width="50" height="50" as="geometry" />
        </mxCell>
        <mxCell id="HJ1KMDWT780nta9G588y-47" value="" style="endArrow=none;dashed=1;html=1;" parent="1" edge="1">
          <mxGeometry width="50" height="50" relative="1" as="geometry">
            <mxPoint x="800" y="480" as="sourcePoint" />
            <mxPoint x="800" y="20" as="targetPoint" />
          </mxGeometry>
        </mxCell>
        <mxCell id="HJ1KMDWT780nta9G588y-48" value="" style="endArrow=none;dashed=1;html=1;" parent="1" edge="1">
          <mxGeometry width="50" height="50" relative="1" as="geometry">
            <mxPoint x="340" y="480" as="sourcePoint" />
            <mxPoint x="800" y="480" as="targetPoint" />
          </mxGeometry>
        </mxCell>
        <mxCell id="HJ1KMDWT780nta9G588y-49" value="" style="endArrow=none;dashed=1;html=1;" parent="1" edge="1">
          <mxGeometry width="50" height="50" relative="1" as="geometry">
            <mxPoint x="340" y="20" as="sourcePoint" />
            <mxPoint x="800" y="20" as="targetPoint" />
          </mxGeometry>
        </mxCell>
        <mxCell id="HJ1KMDWT780nta9G588y-50" value="" style="endArrow=none;dashed=1;html=1;" parent="1" edge="1">
          <mxGeometry width="50" height="50" relative="1" as="geometry">
            <mxPoint x="340" y="490" as="sourcePoint" />
            <mxPoint x="340" y="20" as="targetPoint" />
          </mxGeometry>
        </mxCell>
        <mxCell id="HJ1KMDWT780nta9G588y-51" value="" style="endArrow=none;dashed=1;html=1;" parent="1" edge="1" source="HJ1KMDWT780nta9G588y-137">
          <mxGeometry width="50" height="50" relative="1" as="geometry">
            <mxPoint x="810" y="480" as="sourcePoint" />
            <mxPoint x="810" y="20" as="targetPoint" />
          </mxGeometry>
        </mxCell>
        <mxCell id="HJ1KMDWT780nta9G588y-52" value="" style="endArrow=none;dashed=1;html=1;" parent="1" edge="1">
          <mxGeometry width="50" height="50" relative="1" as="geometry">
            <mxPoint x="1260" y="20" as="sourcePoint" />
            <mxPoint x="810" y="20" as="targetPoint" />
          </mxGeometry>
        </mxCell>
        <mxCell id="HJ1KMDWT780nta9G588y-53" value="" style="endArrow=none;dashed=1;html=1;" parent="1" edge="1">
          <mxGeometry width="50" height="50" relative="1" as="geometry">
            <mxPoint x="1260" y="480" as="sourcePoint" />
            <mxPoint x="1260" y="20" as="targetPoint" />
          </mxGeometry>
        </mxCell>
        <mxCell id="HJ1KMDWT780nta9G588y-54" value="" style="endArrow=none;dashed=1;html=1;" parent="1" edge="1">
          <mxGeometry width="50" height="50" relative="1" as="geometry">
            <mxPoint x="1260" y="480" as="sourcePoint" />
            <mxPoint x="810" y="480" as="targetPoint" />
          </mxGeometry>
        </mxCell>
        <mxCell id="HJ1KMDWT780nta9G588y-55" value="" style="endArrow=none;dashed=1;html=1;" parent="1" edge="1">
          <mxGeometry width="50" height="50" relative="1" as="geometry">
            <mxPoint x="1300" y="480" as="sourcePoint" />
            <mxPoint x="1300" y="20" as="targetPoint" />
          </mxGeometry>
        </mxCell>
        <mxCell id="HJ1KMDWT780nta9G588y-56" value="" style="endArrow=none;dashed=1;html=1;" parent="1" edge="1">
          <mxGeometry width="50" height="50" relative="1" as="geometry">
            <mxPoint x="1450" y="20" as="sourcePoint" />
            <mxPoint x="1300" y="20" as="targetPoint" />
          </mxGeometry>
        </mxCell>
        <mxCell id="HJ1KMDWT780nta9G588y-57" value="" style="endArrow=none;dashed=1;html=1;" parent="1" edge="1">
          <mxGeometry width="50" height="50" relative="1" as="geometry">
            <mxPoint x="1449.9999999999998" y="480" as="sourcePoint" />
            <mxPoint x="1449.9999999999998" y="20" as="targetPoint" />
          </mxGeometry>
        </mxCell>
        <mxCell id="HJ1KMDWT780nta9G588y-59" value="" style="endArrow=none;dashed=1;html=1;" parent="1" edge="1">
          <mxGeometry width="50" height="50" relative="1" as="geometry">
            <mxPoint x="1450" y="480" as="sourcePoint" />
            <mxPoint x="1300" y="480" as="targetPoint" />
          </mxGeometry>
        </mxCell>
        <mxCell id="HJ1KMDWT780nta9G588y-60" value="&lt;span style=&quot;font-family: , &amp;#34;blinkmacsystemfont&amp;#34; , &amp;#34;roboto&amp;#34; , &amp;#34;helvetica neue&amp;#34; , &amp;#34;geneva&amp;#34; , &amp;#34;noto sans armenian&amp;#34; , &amp;#34;noto sans bengali&amp;#34; , &amp;#34;noto sans cherokee&amp;#34; , &amp;#34;noto sans devanagari&amp;#34; , &amp;#34;noto sans ethiopic&amp;#34; , &amp;#34;noto sans georgian&amp;#34; , &amp;#34;noto sans hebrew&amp;#34; , &amp;#34;noto sans kannada&amp;#34; , &amp;#34;noto sans khmer&amp;#34; , &amp;#34;noto sans lao&amp;#34; , &amp;#34;noto sans osmanya&amp;#34; , &amp;#34;noto sans tamil&amp;#34; , &amp;#34;noto sans telugu&amp;#34; , &amp;#34;noto sans thai&amp;#34; , sans-serif , &amp;#34;arial&amp;#34; , &amp;#34;tahoma&amp;#34; , &amp;#34;verdana&amp;#34; ; font-size: 13px ; text-align: left ; background-color: rgb(255 , 255 , 255)&quot;&gt;критические сервисы&lt;/span&gt;" style="text;html=1;strokeColor=none;fillColor=none;align=center;verticalAlign=middle;whiteSpace=wrap;rounded=0;" parent="1" vertex="1">
          <mxGeometry x="330" y="20" width="160" height="20" as="geometry" />
        </mxCell>
        <mxCell id="HJ1KMDWT780nta9G588y-61" value="&lt;span style=&quot;font-family: , &amp;#34;blinkmacsystemfont&amp;#34; , &amp;#34;roboto&amp;#34; , &amp;#34;helvetica neue&amp;#34; , &amp;#34;geneva&amp;#34; , &amp;#34;noto sans armenian&amp;#34; , &amp;#34;noto sans bengali&amp;#34; , &amp;#34;noto sans cherokee&amp;#34; , &amp;#34;noto sans devanagari&amp;#34; , &amp;#34;noto sans ethiopic&amp;#34; , &amp;#34;noto sans georgian&amp;#34; , &amp;#34;noto sans hebrew&amp;#34; , &amp;#34;noto sans kannada&amp;#34; , &amp;#34;noto sans khmer&amp;#34; , &amp;#34;noto sans lao&amp;#34; , &amp;#34;noto sans osmanya&amp;#34; , &amp;#34;noto sans tamil&amp;#34; , &amp;#34;noto sans telugu&amp;#34; , &amp;#34;noto sans thai&amp;#34; , sans-serif , &amp;#34;arial&amp;#34; , &amp;#34;tahoma&amp;#34; , &amp;#34;verdana&amp;#34; ; font-size: 13px ; text-align: left ; background-color: rgb(255 , 255 , 255)&quot;&gt;не критические сервисы&lt;/span&gt;" style="text;html=1;strokeColor=none;fillColor=none;align=center;verticalAlign=middle;whiteSpace=wrap;rounded=0;" parent="1" vertex="1">
          <mxGeometry x="810" y="20" width="170" height="20" as="geometry" />
        </mxCell>
        <mxCell id="HJ1KMDWT780nta9G588y-62" value="&lt;span style=&quot;color: rgb(0, 0, 0); font-size: 13px; font-style: normal; font-weight: 400; letter-spacing: normal; text-align: left; text-indent: 0px; text-transform: none; word-spacing: 0px; background-color: rgb(255, 255, 255); display: inline; float: none;&quot;&gt;пользователи&lt;/span&gt;" style="text;whiteSpace=wrap;html=1;" parent="1" vertex="1">
          <mxGeometry x="1300" y="20" width="110" height="20" as="geometry" />
        </mxCell>
        <mxCell id="HJ1KMDWT780nta9G588y-63" value="&lt;span style=&quot;color: rgb(0, 0, 0); font-size: 13px; font-style: normal; font-weight: 400; letter-spacing: normal; text-align: left; text-indent: 0px; text-transform: none; word-spacing: 0px; background-color: rgb(255, 255, 255); display: inline; float: none;&quot;&gt;RDP&lt;/span&gt;" style="text;whiteSpace=wrap;html=1;" parent="1" vertex="1">
          <mxGeometry x="1355" y="245" width="50" height="30" as="geometry" />
        </mxCell>
        <mxCell id="HJ1KMDWT780nta9G588y-64" value="&lt;span style=&quot;color: rgb(0 , 0 , 0) ; font-size: 13px ; font-style: normal ; font-weight: 400 ; letter-spacing: normal ; text-align: left ; text-indent: 0px ; text-transform: none ; word-spacing: 0px ; background-color: rgb(240 , 242 , 245) ; display: inline ; float: none&quot;&gt;DB4&lt;/span&gt;" style="text;whiteSpace=wrap;html=1;" parent="1" vertex="1">
          <mxGeometry x="1128" y="280" width="50" height="30" as="geometry" />
        </mxCell>
        <mxCell id="HJ1KMDWT780nta9G588y-65" value="&lt;span style=&quot;color: rgb(0 , 0 , 0) ; font-size: 13px ; font-style: normal ; font-weight: 400 ; letter-spacing: normal ; text-align: left ; text-indent: 0px ; text-transform: none ; word-spacing: 0px ; background-color: rgb(240 , 242 , 245) ; display: inline ; float: none&quot;&gt;DB3&lt;/span&gt;" style="text;whiteSpace=wrap;html=1;" parent="1" vertex="1">
          <mxGeometry x="1127" y="40" width="50" height="30" as="geometry" />
        </mxCell>
        <mxCell id="HJ1KMDWT780nta9G588y-67" value="&lt;span style=&quot;color: rgb(0, 0, 0); font-size: 13px; font-style: normal; font-weight: 400; letter-spacing: normal; text-align: left; text-indent: 0px; text-transform: none; word-spacing: 0px; background-color: rgb(240, 242, 245); display: inline; float: none;&quot;&gt;DB1&lt;/span&gt;" style="text;whiteSpace=wrap;html=1;" parent="1" vertex="1">
          <mxGeometry x="670" y="40" width="50" height="30" as="geometry" />
        </mxCell>
        <mxCell id="HJ1KMDWT780nta9G588y-69" value="DB2" style="text;whiteSpace=wrap;html=1;" parent="1" vertex="1">
          <mxGeometry x="660" y="280" width="50" height="30" as="geometry" />
        </mxCell>
        <mxCell id="HJ1KMDWT780nta9G588y-70" value="&lt;span style=&quot;color: rgb(0 , 0 , 0) ; font-size: 13px ; font-style: normal ; font-weight: 400 ; letter-spacing: normal ; text-align: left ; text-indent: 0px ; text-transform: none ; word-spacing: 0px ; background-color: rgb(255 , 255 , 255) ; display: inline ; float: none&quot;&gt;APP3&lt;/span&gt;" style="text;whiteSpace=wrap;html=1;" parent="1" vertex="1">
          <mxGeometry x="977" y="40" width="60" height="30" as="geometry" />
        </mxCell>
        <mxCell id="HJ1KMDWT780nta9G588y-71" value="&lt;span style=&quot;color: rgb(0 , 0 , 0) ; font-size: 13px ; font-style: normal ; font-weight: 400 ; letter-spacing: normal ; text-align: left ; text-indent: 0px ; text-transform: none ; word-spacing: 0px ; background-color: rgb(255 , 255 , 255) ; display: inline ; float: none&quot;&gt;APP4&lt;/span&gt;" style="text;whiteSpace=wrap;html=1;" parent="1" vertex="1">
          <mxGeometry x="980" y="280" width="60" height="30" as="geometry" />
        </mxCell>
        <mxCell id="HJ1KMDWT780nta9G588y-72" value="&lt;span style=&quot;color: rgb(0, 0, 0); font-size: 13px; font-style: normal; font-weight: 400; letter-spacing: normal; text-align: left; text-indent: 0px; text-transform: none; word-spacing: 0px; background-color: rgb(255, 255, 255); display: inline; float: none;&quot;&gt;APP1&lt;/span&gt;" style="text;whiteSpace=wrap;html=1;" parent="1" vertex="1">
          <mxGeometry x="510" y="40" width="60" height="30" as="geometry" />
        </mxCell>
        <mxCell id="HJ1KMDWT780nta9G588y-73" value="&lt;span style=&quot;color: rgb(0 , 0 , 0) ; font-size: 13px ; font-style: normal ; font-weight: 400 ; letter-spacing: normal ; text-align: left ; text-indent: 0px ; text-transform: none ; word-spacing: 0px ; background-color: rgb(255 , 255 , 255) ; display: inline ; float: none&quot;&gt;APP2&lt;/span&gt;" style="text;whiteSpace=wrap;html=1;" parent="1" vertex="1">
          <mxGeometry x="510" y="280" width="60" height="30" as="geometry" />
        </mxCell>
        <mxCell id="HJ1KMDWT780nta9G588y-74" value="&lt;span style=&quot;color: rgb(0 , 0 , 0) ; font-size: 13px ; font-style: normal ; font-weight: 400 ; letter-spacing: normal ; text-align: left ; text-indent: 0px ; text-transform: none ; word-spacing: 0px ; background-color: rgb(255 , 255 , 255) ; display: inline ; float: none&quot;&gt;DMZ4&lt;/span&gt;" style="text;whiteSpace=wrap;html=1;" parent="1" vertex="1">
          <mxGeometry x="827" y="280" width="60" height="30" as="geometry" />
        </mxCell>
        <mxCell id="HJ1KMDWT780nta9G588y-76" value="&lt;span style=&quot;color: rgb(0 , 0 , 0) ; font-size: 13px ; font-style: normal ; font-weight: 400 ; letter-spacing: normal ; text-align: left ; text-indent: 0px ; text-transform: none ; word-spacing: 0px ; background-color: rgb(255 , 255 , 255) ; display: inline ; float: none&quot;&gt;DMZ3&lt;/span&gt;" style="text;whiteSpace=wrap;html=1;" parent="1" vertex="1">
          <mxGeometry x="827" y="40" width="60" height="30" as="geometry" />
        </mxCell>
        <mxCell id="HJ1KMDWT780nta9G588y-77" value="&lt;span style=&quot;color: rgb(0, 0, 0); font-size: 13px; font-style: normal; font-weight: 400; letter-spacing: normal; text-align: left; text-indent: 0px; text-transform: none; word-spacing: 0px; background-color: rgb(255, 255, 255); display: inline; float: none;&quot;&gt;DMZ1&lt;/span&gt;" style="text;whiteSpace=wrap;html=1;" parent="1" vertex="1">
          <mxGeometry x="360" y="40" width="60" height="30" as="geometry" />
        </mxCell>
        <mxCell id="HJ1KMDWT780nta9G588y-79" value="&lt;span style=&quot;color: rgb(0 , 0 , 0) ; font-size: 13px ; font-style: normal ; font-weight: 400 ; letter-spacing: normal ; text-align: left ; text-indent: 0px ; text-transform: none ; word-spacing: 0px ; background-color: rgb(255 , 255 , 255) ; display: inline ; float: none&quot;&gt;DMZ2&lt;/span&gt;" style="text;whiteSpace=wrap;html=1;" parent="1" vertex="1">
          <mxGeometry x="360" y="280" width="60" height="30" as="geometry" />
        </mxCell>
        <mxCell id="HJ1KMDWT780nta9G588y-81" value="&lt;span style=&quot;color: rgb(0, 0, 0); font-size: 13px; font-style: normal; font-weight: 400; letter-spacing: normal; text-align: left; text-indent: 0px; text-transform: none; word-spacing: 0px; background-color: rgb(240, 242, 245); display: inline; float: none;&quot;&gt;прокси-сервер 1&lt;/span&gt;" style="text;whiteSpace=wrap;html=1;" parent="1" vertex="1">
          <mxGeometry x="370" y="350" width="120" height="30" as="geometry" />
        </mxCell>
        <mxCell id="HJ1KMDWT780nta9G588y-82" value="&lt;span style=&quot;color: rgb(0 , 0 , 0) ; font-size: 13px ; font-style: normal ; font-weight: 400 ; letter-spacing: normal ; text-align: left ; text-indent: 0px ; text-transform: none ; word-spacing: 0px ; background-color: rgb(240 , 242 , 245) ; display: inline ; float: none&quot;&gt;прокси-сервер 2&lt;/span&gt;" style="text;whiteSpace=wrap;html=1;" parent="1" vertex="1">
          <mxGeometry x="827" y="342.5" width="120" height="30" as="geometry" />
        </mxCell>
        <mxCell id="HJ1KMDWT780nta9G588y-83" value="&lt;span style=&quot;color: rgb(0, 0, 0); font-size: 13px; font-style: normal; font-weight: 400; letter-spacing: normal; text-align: left; text-indent: 0px; text-transform: none; word-spacing: 0px; background-color: rgb(255, 255, 255); display: inline; float: none;&quot;&gt;веб сервер&lt;/span&gt;" style="text;whiteSpace=wrap;html=1;" parent="1" vertex="1">
          <mxGeometry x="375" y="427.5" width="90" height="30" as="geometry" />
        </mxCell>
        <mxCell id="HJ1KMDWT780nta9G588y-84" value="&lt;span style=&quot;color: rgb(0, 0, 0); font-size: 13px; font-style: normal; font-weight: 400; letter-spacing: normal; text-align: left; text-indent: 0px; text-transform: none; word-spacing: 0px; background-color: rgb(255, 255, 255); display: inline; float: none;&quot;&gt;веб сервер&lt;/span&gt;" style="text;whiteSpace=wrap;html=1;" parent="1" vertex="1">
          <mxGeometry x="842" y="425" width="90" height="30" as="geometry" />
        </mxCell>
        <mxCell id="HJ1KMDWT780nta9G588y-85" value="&lt;span style=&quot;color: rgb(0, 0, 0); font-size: 13px; font-style: normal; font-weight: 400; letter-spacing: normal; text-align: left; text-indent: 0px; text-transform: none; word-spacing: 0px; background-color: rgb(240, 242, 245); display: inline; float: none;&quot;&gt;сервер приложения&lt;/span&gt;" style="text;whiteSpace=wrap;html=1;" parent="1" vertex="1">
          <mxGeometry x="530" y="410" width="80" height="30" as="geometry" />
        </mxCell>
        <mxCell id="HJ1KMDWT780nta9G588y-86" value="&lt;span style=&quot;color: rgb(0, 0, 0); font-size: 13px; font-style: normal; font-weight: 400; letter-spacing: normal; text-align: left; text-indent: 0px; text-transform: none; word-spacing: 0px; background-color: rgb(240, 242, 245); display: inline; float: none;&quot;&gt;сервер приложения&lt;/span&gt;" style="text;whiteSpace=wrap;html=1;" parent="1" vertex="1">
          <mxGeometry x="990" y="410" width="110" height="30" as="geometry" />
        </mxCell>
        <mxCell id="HJ1KMDWT780nta9G588y-87" value="&lt;span style=&quot;color: rgb(0, 0, 0); font-size: 13px; font-style: normal; font-weight: 400; letter-spacing: normal; text-align: left; text-indent: 0px; text-transform: none; word-spacing: 0px; background-color: rgb(255, 255, 255); display: inline; float: none;&quot;&gt;база данных&lt;/span&gt;" style="text;whiteSpace=wrap;html=1;" parent="1" vertex="1">
          <mxGeometry x="680" y="420" width="100" height="30" as="geometry" />
        </mxCell>
        <mxCell id="HJ1KMDWT780nta9G588y-88" value="&lt;span style=&quot;color: rgb(0, 0, 0); font-size: 13px; font-style: normal; font-weight: 400; letter-spacing: normal; text-align: left; text-indent: 0px; text-transform: none; word-spacing: 0px; background-color: rgb(255, 255, 255); display: inline; float: none;&quot;&gt;транспортная сеть&lt;/span&gt;" style="text;whiteSpace=wrap;html=1;" parent="1" vertex="1">
          <mxGeometry x="320" y="540" width="140" height="30" as="geometry" />
        </mxCell>
        <mxCell id="HJ1KMDWT780nta9G588y-89" value="&lt;span style=&quot;color: rgb(0, 0, 0); font-size: 13px; font-style: normal; font-weight: 400; letter-spacing: normal; text-align: left; text-indent: 0px; text-transform: none; word-spacing: 0px; background-color: rgb(255, 255, 255); display: inline; float: none;&quot;&gt;роутер программный&lt;/span&gt;" style="text;whiteSpace=wrap;html=1;" parent="1" vertex="1">
          <mxGeometry x="185" y="540" width="150" height="30" as="geometry" />
        </mxCell>
        <mxCell id="HJ1KMDWT780nta9G588y-90" value="&lt;span style=&quot;color: rgb(0, 0, 0); font-size: 13px; font-style: normal; font-weight: 400; letter-spacing: normal; text-align: left; text-indent: 0px; text-transform: none; word-spacing: 0px; background-color: rgb(255, 255, 255); display: inline; float: none;&quot;&gt;роутер программный&lt;/span&gt;" style="text;whiteSpace=wrap;html=1;" parent="1" vertex="1">
          <mxGeometry x="195" y="600" width="150" height="30" as="geometry" />
        </mxCell>
        <mxCell id="HJ1KMDWT780nta9G588y-92" value="" style="endArrow=none;html=1;exitX=0.5;exitY=1;exitDx=0;exitDy=0;" parent="1" source="HJ1KMDWT780nta9G588y-1" edge="1">
          <mxGeometry width="50" height="50" relative="1" as="geometry">
            <mxPoint x="520" y="390" as="sourcePoint" />
            <mxPoint x="100" y="590" as="targetPoint" />
          </mxGeometry>
        </mxCell>
        <mxCell id="HJ1KMDWT780nta9G588y-95" value="" style="endArrow=none;html=1;" parent="1" edge="1">
          <mxGeometry width="50" height="50" relative="1" as="geometry">
            <mxPoint x="750" y="520" as="sourcePoint" />
            <mxPoint x="750" y="480" as="targetPoint" />
          </mxGeometry>
        </mxCell>
        <mxCell id="HJ1KMDWT780nta9G588y-96" value="" style="endArrow=none;html=1;" parent="1" edge="1">
          <mxGeometry width="50" height="50" relative="1" as="geometry">
            <mxPoint x="1400" y="590" as="sourcePoint" />
            <mxPoint x="1400" y="480" as="targetPoint" />
          </mxGeometry>
        </mxCell>
        <mxCell id="HJ1KMDWT780nta9G588y-97" value="" style="endArrow=none;html=1;" parent="1" edge="1">
          <mxGeometry width="50" height="50" relative="1" as="geometry">
            <mxPoint x="1040" y="590" as="sourcePoint" />
            <mxPoint x="1040" y="480" as="targetPoint" />
          </mxGeometry>
        </mxCell>
        <mxCell id="HJ1KMDWT780nta9G588y-98" value="" style="endArrow=classic;html=1;exitX=1;exitY=0.75;exitDx=0;exitDy=0;entryX=0;entryY=0.5;entryDx=0;entryDy=0;entryPerimeter=0;rounded=1;strokeColor=#007FFF;" parent="1" edge="1">
          <mxGeometry width="50" height="50" relative="1" as="geometry">
            <mxPoint x="170" y="365.0000000000002" as="sourcePoint" />
            <mxPoint x="397" y="417.5" as="targetPoint" />
          </mxGeometry>
        </mxCell>
        <mxCell id="HJ1KMDWT780nta9G588y-100" value="" style="endArrow=classic;html=1;exitX=1;exitY=0.75;exitDx=0;exitDy=0;rounded=1;strokeColor=#007FFF;" parent="1" target="HJ1KMDWT780nta9G588y-26" edge="1">
          <mxGeometry width="50" height="50" relative="1" as="geometry">
            <mxPoint x="426.5" y="402.5000000000002" as="sourcePoint" />
            <mxPoint x="653.5" y="455" as="targetPoint" />
          </mxGeometry>
        </mxCell>
        <mxCell id="HJ1KMDWT780nta9G588y-101" value="" style="endArrow=classic;html=1;exitX=1;exitY=0.75;exitDx=0;exitDy=0;rounded=1;strokeColor=#007FFF;" parent="1" edge="1">
          <mxGeometry width="50" height="50" relative="1" as="geometry">
            <mxPoint x="590" y="367.5000000000002" as="sourcePoint" />
            <mxPoint x="700" y="393" as="targetPoint" />
            <Array as="points">
              <mxPoint x="700" y="392.5" />
            </Array>
          </mxGeometry>
        </mxCell>
        <mxCell id="HJ1KMDWT780nta9G588y-105" value="" style="endArrow=classic;html=1;entryX=0.587;entryY=1.008;entryDx=0;entryDy=0;entryPerimeter=0;strokeColor=#007FFF;" parent="1" target="HJ1KMDWT780nta9G588y-1" edge="1">
          <mxGeometry width="50" height="50" relative="1" as="geometry">
            <mxPoint x="110" y="490" as="sourcePoint" />
            <mxPoint x="1070" y="490" as="targetPoint" />
          </mxGeometry>
        </mxCell>
        <mxCell id="HJ1KMDWT780nta9G588y-110" value="" style="endArrow=none;html=1;strokeColor=#007FFF;" parent="1" edge="1">
          <mxGeometry width="50" height="50" relative="1" as="geometry">
            <mxPoint x="110" y="490" as="sourcePoint" />
            <mxPoint x="810" y="500" as="targetPoint" />
          </mxGeometry>
        </mxCell>
        <mxCell id="HJ1KMDWT780nta9G588y-111" value="" style="endArrow=none;html=1;strokeColor=#007FFF;" parent="1" edge="1" source="HJ1KMDWT780nta9G588y-137">
          <mxGeometry width="50" height="50" relative="1" as="geometry">
            <mxPoint x="810" y="330" as="sourcePoint" />
            <mxPoint x="810" y="500" as="targetPoint" />
          </mxGeometry>
        </mxCell>
        <mxCell id="HJ1KMDWT780nta9G588y-113" value="" style="endArrow=none;html=1;strokeColor=#007FFF;entryX=0;entryY=0.5;entryDx=0;entryDy=0;entryPerimeter=0;" parent="1" target="HJ1KMDWT780nta9G588y-33" edge="1">
          <mxGeometry width="50" height="50" relative="1" as="geometry">
            <mxPoint x="790" y="400" as="sourcePoint" />
            <mxPoint x="870.04" y="350.03999999999996" as="targetPoint" />
          </mxGeometry>
        </mxCell>
        <mxCell id="HJ1KMDWT780nta9G588y-114" value="" style="endArrow=none;html=1;strokeColor=#007FFF;" parent="1" edge="1">
          <mxGeometry width="50" height="50" relative="1" as="geometry">
            <mxPoint x="790" y="500" as="sourcePoint" />
            <mxPoint x="790" y="400" as="targetPoint" />
          </mxGeometry>
        </mxCell>
        <mxCell id="HJ1KMDWT780nta9G588y-119" value="" style="endArrow=classic;startArrow=classic;html=1;strokeColor=#007FFF;" parent="1" source="HJ1KMDWT780nta9G588y-33" target="HJ1KMDWT780nta9G588y-31" edge="1">
          <mxGeometry width="50" height="50" relative="1" as="geometry">
            <mxPoint x="860" y="540" as="sourcePoint" />
            <mxPoint x="910" y="490" as="targetPoint" />
          </mxGeometry>
        </mxCell>
        <mxCell id="HJ1KMDWT780nta9G588y-120" value="" style="endArrow=classic;html=1;strokeColor=#007FFF;entryX=0;entryY=0.5;entryDx=0;entryDy=0;entryPerimeter=0;" parent="1" source="HJ1KMDWT780nta9G588y-31" target="HJ1KMDWT780nta9G588y-30" edge="1">
          <mxGeometry width="50" height="50" relative="1" as="geometry">
            <mxPoint x="860" y="540" as="sourcePoint" />
            <mxPoint x="910" y="490" as="targetPoint" />
          </mxGeometry>
        </mxCell>
        <mxCell id="HJ1KMDWT780nta9G588y-121" value="" style="endArrow=classic;html=1;strokeColor=#007FFF;" parent="1" source="HJ1KMDWT780nta9G588y-29" edge="1">
          <mxGeometry width="50" height="50" relative="1" as="geometry">
            <mxPoint x="860" y="540" as="sourcePoint" />
            <mxPoint x="1260" y="370" as="targetPoint" />
          </mxGeometry>
        </mxCell>
        <mxCell id="HJ1KMDWT780nta9G588y-124" value="" style="endArrow=classic;html=1;strokeColor=#007FFF;entryX=0.5;entryY=0.07;entryDx=0;entryDy=0;entryPerimeter=0;exitX=0.5;exitY=1;exitDx=0;exitDy=0;" parent="1" source="HJ1KMDWT780nta9G588y-18" target="HJ1KMDWT780nta9G588y-29" edge="1">
          <mxGeometry width="50" height="50" relative="1" as="geometry">
            <mxPoint x="1000" y="350" as="sourcePoint" />
            <mxPoint x="936.6399999999999" y="353.9999999999999" as="targetPoint" />
          </mxGeometry>
        </mxCell>
        <mxCell id="HJ1KMDWT780nta9G588y-126" value="" style="endArrow=classic;html=1;strokeColor=#007FFF;" parent="1" edge="1">
          <mxGeometry width="50" height="50" relative="1" as="geometry">
            <mxPoint x="560" y="-20" as="sourcePoint" />
            <mxPoint x="560" y="20" as="targetPoint" />
          </mxGeometry>
        </mxCell>
        <mxCell id="HJ1KMDWT780nta9G588y-127" value="" style="endArrow=none;html=1;strokeColor=#007FFF;" parent="1" edge="1">
          <mxGeometry width="50" height="50" relative="1" as="geometry">
            <mxPoint x="1370" y="-20" as="sourcePoint" />
            <mxPoint x="560" y="-20" as="targetPoint" />
          </mxGeometry>
        </mxCell>
        <mxCell id="HJ1KMDWT780nta9G588y-129" value="" style="endArrow=none;html=1;strokeColor=#007FFF;exitX=0.653;exitY=0.071;exitDx=0;exitDy=0;exitPerimeter=0;" parent="1" source="HJ1KMDWT780nta9G588y-62" edge="1">
          <mxGeometry width="50" height="50" relative="1" as="geometry">
            <mxPoint x="860" y="200" as="sourcePoint" />
            <mxPoint x="1370" y="-20" as="targetPoint" />
          </mxGeometry>
        </mxCell>
        <mxCell id="HJ1KMDWT780nta9G588y-133" value="" style="endArrow=classic;html=1;strokeColor=#007FFF;entryX=0.667;entryY=0.689;entryDx=0;entryDy=0;entryPerimeter=0;exitX=0;exitY=0.5;exitDx=0;exitDy=0;exitPerimeter=0;" parent="1" source="HJ1KMDWT780nta9G588y-24" target="HJ1KMDWT780nta9G588y-2" edge="1">
          <mxGeometry width="50" height="50" relative="1" as="geometry">
            <mxPoint x="387" y="331.5" as="sourcePoint" />
            <mxPoint x="323.2399999999998" y="329.8000000000002" as="targetPoint" />
          </mxGeometry>
        </mxCell>
        <mxCell id="HJ1KMDWT780nta9G588y-132" value="&lt;span style=&quot;color: rgb(0, 0, 0); font-size: 13px; font-style: normal; font-weight: 400; letter-spacing: normal; text-align: left; text-indent: 0px; text-transform: none; word-spacing: 0px; background-color: rgb(255, 255, 255); display: inline; float: none;&quot;&gt;HTTP&lt;/span&gt;&lt;br style=&quot;color: rgb(0, 0, 0); font-size: 13px; font-style: normal; font-weight: 400; letter-spacing: normal; text-align: left; text-indent: 0px; text-transform: none; word-spacing: 0px; background-color: rgb(255, 255, 255);&quot;&gt;&lt;span style=&quot;color: rgb(0, 0, 0); font-size: 13px; font-style: normal; font-weight: 400; letter-spacing: normal; text-align: left; text-indent: 0px; text-transform: none; word-spacing: 0px; background-color: rgb(255, 255, 255); display: inline; float: none;&quot;&gt;HTTPS&lt;/span&gt;&lt;br style=&quot;color: rgb(0, 0, 0); font-size: 13px; font-style: normal; font-weight: 400; letter-spacing: normal; text-align: left; text-indent: 0px; text-transform: none; word-spacing: 0px; background-color: rgb(255, 255, 255);&quot;&gt;&lt;span style=&quot;color: rgb(0, 0, 0); font-size: 13px; font-style: normal; font-weight: 400; letter-spacing: normal; text-align: left; text-indent: 0px; text-transform: none; word-spacing: 0px; background-color: rgb(255, 255, 255); display: inline; float: none;&quot;&gt;FTP&lt;/span&gt;" style="text;whiteSpace=wrap;html=1;" parent="1" vertex="1">
          <mxGeometry x="317" y="302.5" width="53" height="39" as="geometry" />
        </mxCell>
        <mxCell id="HJ1KMDWT780nta9G588y-135" value="&lt;span style=&quot;color: rgb(0 , 0 , 0) ; font-size: 13px ; font-style: normal ; font-weight: 400 ; letter-spacing: normal ; text-align: left ; text-indent: 0px ; text-transform: none ; word-spacing: 0px ; background-color: rgb(255 , 255 , 255) ; display: inline ; float: none&quot;&gt;HTTP&lt;/span&gt;&lt;br style=&quot;color: rgb(0 , 0 , 0) ; font-size: 13px ; font-style: normal ; font-weight: 400 ; letter-spacing: normal ; text-align: left ; text-indent: 0px ; text-transform: none ; word-spacing: 0px ; background-color: rgb(255 , 255 , 255)&quot;&gt;" style="text;whiteSpace=wrap;html=1;" parent="1" vertex="1">
          <mxGeometry x="470" y="362.5" width="40" height="30" as="geometry" />
        </mxCell>
        <mxCell id="HJ1KMDWT780nta9G588y-140" value="&lt;span style=&quot;color: rgb(0 , 0 , 0) ; font-size: 13px ; font-style: normal ; font-weight: 400 ; letter-spacing: normal ; text-align: left ; text-indent: 0px ; text-transform: none ; word-spacing: 0px ; background-color: rgb(255 , 255 , 255) ; display: inline ; float: none&quot;&gt;HTTP&lt;/span&gt;&lt;br style=&quot;color: rgb(0 , 0 , 0) ; font-size: 13px ; font-style: normal ; font-weight: 400 ; letter-spacing: normal ; text-align: left ; text-indent: 0px ; text-transform: none ; word-spacing: 0px ; background-color: rgb(255 , 255 , 255)&quot;&gt;" style="text;whiteSpace=wrap;html=1;" parent="1" vertex="1">
          <mxGeometry x="947" y="353" width="40" height="30" as="geometry" />
        </mxCell>
        <mxCell id="HJ1KMDWT780nta9G588y-142" value="&lt;span style=&quot;color: rgb(0, 0, 0); font-size: 13px; font-style: normal; font-weight: 400; letter-spacing: normal; text-align: left; text-indent: 0px; text-transform: none; word-spacing: 0px; background-color: rgb(255, 255, 255); display: inline; float: none;&quot;&gt;SQL-NET&lt;/span&gt;" style="text;whiteSpace=wrap;html=1;" parent="1" vertex="1">
          <mxGeometry x="1080" y="345.5" width="60" height="20" as="geometry" />
        </mxCell>
        <mxCell id="HJ1KMDWT780nta9G588y-143" value="&lt;span style=&quot;color: rgb(0, 0, 0); font-size: 13px; font-style: normal; font-weight: 400; letter-spacing: normal; text-align: left; text-indent: 0px; text-transform: none; word-spacing: 0px; background-color: rgb(255, 255, 255); display: inline; float: none;&quot;&gt;SQL-NET&lt;/span&gt;" style="text;whiteSpace=wrap;html=1;" parent="1" vertex="1">
          <mxGeometry x="610" y="350" width="70" height="10" as="geometry" />
        </mxCell>
        <mxCell id="HJ1KMDWT780nta9G588y-144" value="&lt;span style=&quot;color: rgb(0, 0, 0); font-size: 13px; font-style: normal; font-weight: 400; letter-spacing: normal; text-align: left; text-indent: 0px; text-transform: none; word-spacing: 0px; background-color: rgb(255, 255, 255); display: inline; float: none;&quot;&gt;TCP3128&lt;/span&gt;" style="text;whiteSpace=wrap;html=1;" parent="1" vertex="1">
          <mxGeometry x="450" y="290" width="80" height="30" as="geometry" />
        </mxCell>
        <mxCell id="HJ1KMDWT780nta9G588y-145" value="&lt;span style=&quot;color: rgb(0, 0, 0); font-size: 13px; font-style: normal; font-weight: 400; letter-spacing: normal; text-align: left; text-indent: 0px; text-transform: none; word-spacing: 0px; background-color: rgb(255, 255, 255); display: inline; float: none;&quot;&gt;TCP3128&lt;/span&gt;" style="text;whiteSpace=wrap;html=1;" parent="1" vertex="1">
          <mxGeometry x="927" y="307" width="80" height="30" as="geometry" />
        </mxCell>
        <mxCell id="vRpasQC0jQgQnMMgfVWq-11" style="edgeStyle=orthogonalEdgeStyle;rounded=1;orthogonalLoop=1;jettySize=auto;html=1;exitX=0;exitY=0.5;exitDx=0;exitDy=0;exitPerimeter=0;strokeColor=#007FFF;" edge="1" parent="1" source="HJ1KMDWT780nta9G588y-146" target="HJ1KMDWT780nta9G588y-32">
          <mxGeometry relative="1" as="geometry">
            <mxPoint x="936" y="340" as="targetPoint" />
            <Array as="points">
              <mxPoint x="1159" y="340" />
            </Array>
          </mxGeometry>
        </mxCell>
        <mxCell id="HJ1KMDWT780nta9G588y-146" value="" style="fontColor=#0066CC;verticalAlign=top;verticalLabelPosition=bottom;labelPosition=center;align=center;html=1;outlineConnect=0;fillColor=#CCCCCC;strokeColor=#6881B3;gradientColor=none;gradientDirection=north;strokeWidth=2;shape=mxgraph.networks.server;" parent="1" vertex="1">
          <mxGeometry x="1158.5" y="95" width="57" height="70" as="geometry" />
        </mxCell>
        <mxCell id="vRpasQC0jQgQnMMgfVWq-18" style="edgeStyle=orthogonalEdgeStyle;rounded=1;orthogonalLoop=1;jettySize=auto;html=1;exitX=0;exitY=1;exitDx=0;exitDy=0;exitPerimeter=0;entryX=0.88;entryY=0.5;entryDx=0;entryDy=0;entryPerimeter=0;strokeColor=#007FFF;" edge="1" parent="1" source="HJ1KMDWT780nta9G588y-148" target="HJ1KMDWT780nta9G588y-24">
          <mxGeometry relative="1" as="geometry">
            <Array as="points">
              <mxPoint x="700" y="320" />
              <mxPoint x="434" y="320" />
            </Array>
          </mxGeometry>
        </mxCell>
        <mxCell id="HJ1KMDWT780nta9G588y-148" value="" style="fontColor=#0066CC;verticalAlign=top;verticalLabelPosition=bottom;labelPosition=center;align=center;html=1;outlineConnect=0;fillColor=#CCCCCC;strokeColor=#6881B3;gradientColor=none;gradientDirection=north;strokeWidth=2;shape=mxgraph.networks.server;" parent="1" vertex="1">
          <mxGeometry x="700" y="95" width="45" height="70" as="geometry" />
        </mxCell>
        <mxCell id="HJ1KMDWT780nta9G588y-153" value="UDP/53&lt;br&gt;TCP/53" style="text;html=1;align=center;verticalAlign=middle;resizable=0;points=[];autosize=1;" parent="1" vertex="1">
          <mxGeometry x="1157" y="180" width="60" height="30" as="geometry" />
        </mxCell>
        <mxCell id="HJ1KMDWT780nta9G588y-154" value="UDP/53&lt;br&gt;TCP/53" style="text;html=1;align=center;verticalAlign=middle;resizable=0;points=[];autosize=1;" parent="1" vertex="1">
          <mxGeometry x="690" y="180" width="60" height="30" as="geometry" />
        </mxCell>
        <mxCell id="vRpasQC0jQgQnMMgfVWq-7" value="UDP/53&lt;br&gt;TCP/53" style="text;html=1;align=center;verticalAlign=middle;resizable=0;points=[];autosize=1;" vertex="1" parent="1">
          <mxGeometry x="570" y="130" width="60" height="30" as="geometry" />
        </mxCell>
        <mxCell id="vRpasQC0jQgQnMMgfVWq-13" value="" style="endArrow=none;dashed=1;html=1;" edge="1" parent="1" target="HJ1KMDWT780nta9G588y-137">
          <mxGeometry width="50" height="50" relative="1" as="geometry">
            <mxPoint x="810" y="480" as="sourcePoint" />
            <mxPoint x="810" y="20" as="targetPoint" />
          </mxGeometry>
        </mxCell>
        <mxCell id="HJ1KMDWT780nta9G588y-137" value="&lt;span style=&quot;color: rgb(0, 0, 0); font-size: 13px; font-style: normal; font-weight: 400; letter-spacing: normal; text-align: left; text-indent: 0px; text-transform: none; word-spacing: 0px; background-color: rgb(255, 255, 255); display: inline; float: none;&quot;&gt;HTTP&lt;/span&gt;&lt;br style=&quot;color: rgb(0, 0, 0); font-size: 13px; font-style: normal; font-weight: 400; letter-spacing: normal; text-align: left; text-indent: 0px; text-transform: none; word-spacing: 0px; background-color: rgb(255, 255, 255);&quot;&gt;&lt;span style=&quot;color: rgb(0, 0, 0); font-size: 13px; font-style: normal; font-weight: 400; letter-spacing: normal; text-align: left; text-indent: 0px; text-transform: none; word-spacing: 0px; background-color: rgb(255, 255, 255); display: inline; float: none;&quot;&gt;HTTPS&lt;/span&gt;&lt;br style=&quot;color: rgb(0, 0, 0); font-size: 13px; font-style: normal; font-weight: 400; letter-spacing: normal; text-align: left; text-indent: 0px; text-transform: none; word-spacing: 0px; background-color: rgb(255, 255, 255);&quot;&gt;&lt;span style=&quot;color: rgb(0, 0, 0); font-size: 13px; font-style: normal; font-weight: 400; letter-spacing: normal; text-align: left; text-indent: 0px; text-transform: none; word-spacing: 0px; background-color: rgb(255, 255, 255); display: inline; float: none;&quot;&gt;FTP&lt;/span&gt;" style="text;whiteSpace=wrap;html=1;" parent="1" vertex="1">
          <mxGeometry x="790" y="296.5" width="40" height="70" as="geometry" />
        </mxCell>
        <mxCell id="vRpasQC0jQgQnMMgfVWq-14" value="" style="endArrow=none;html=1;strokeColor=#007FFF;" edge="1" parent="1" target="HJ1KMDWT780nta9G588y-137">
          <mxGeometry width="50" height="50" relative="1" as="geometry">
            <mxPoint x="810" y="330" as="sourcePoint" />
            <mxPoint x="810" y="500" as="targetPoint" />
          </mxGeometry>
        </mxCell>
        <mxCell id="vRpasQC0jQgQnMMgfVWq-16" style="edgeStyle=orthogonalEdgeStyle;rounded=1;orthogonalLoop=1;jettySize=auto;html=1;exitX=0.5;exitY=0;exitDx=0;exitDy=0;entryX=0.064;entryY=-0.078;entryDx=0;entryDy=0;entryPerimeter=0;strokeColor=#007FFF;" edge="1" parent="1" source="HJ1KMDWT780nta9G588y-7" target="vRpasQC0jQgQnMMgfVWq-7">
          <mxGeometry relative="1" as="geometry">
            <Array as="points">
              <mxPoint x="470" y="280" />
              <mxPoint x="470" y="128" />
            </Array>
          </mxGeometry>
        </mxCell>
        <mxCell id="vRpasQC0jQgQnMMgfVWq-19" style="edgeStyle=orthogonalEdgeStyle;rounded=1;orthogonalLoop=1;jettySize=auto;html=1;exitX=0;exitY=1;exitDx=0;exitDy=0;exitPerimeter=0;entryX=0.88;entryY=0.5;entryDx=0;entryDy=0;entryPerimeter=0;strokeColor=#007FFF;" edge="1" parent="1" source="vRpasQC0jQgQnMMgfVWq-20">
          <mxGeometry relative="1" as="geometry">
            <mxPoint x="433.6400000000001" y="331.5" as="targetPoint" />
            <Array as="points">
              <mxPoint x="700" y="320" />
              <mxPoint x="434" y="320" />
            </Array>
          </mxGeometry>
        </mxCell>
        <mxCell id="vRpasQC0jQgQnMMgfVWq-23" style="edgeStyle=orthogonalEdgeStyle;rounded=1;orthogonalLoop=1;jettySize=auto;html=1;exitX=1;exitY=0.5;exitDx=0;exitDy=0;exitPerimeter=0;entryX=0.5;entryY=0;entryDx=0;entryDy=0;entryPerimeter=0;strokeColor=#007FFF;" edge="1" parent="1" source="vRpasQC0jQgQnMMgfVWq-20" target="HJ1KMDWT780nta9G588y-146">
          <mxGeometry relative="1" as="geometry">
            <Array as="points">
              <mxPoint x="745" y="10" />
              <mxPoint x="1187" y="10" />
            </Array>
          </mxGeometry>
        </mxCell>
        <mxCell id="vRpasQC0jQgQnMMgfVWq-24" style="edgeStyle=orthogonalEdgeStyle;rounded=1;orthogonalLoop=1;jettySize=auto;html=1;exitX=0;exitY=0.15;exitDx=0;exitDy=0;exitPerimeter=0;entryX=0.5;entryY=0;entryDx=0;entryDy=0;entryPerimeter=0;strokeColor=#007FFF;" edge="1" parent="1" source="vRpasQC0jQgQnMMgfVWq-20" target="vRpasQC0jQgQnMMgfVWq-22">
          <mxGeometry relative="1" as="geometry">
            <Array as="points">
              <mxPoint x="720" y="106" />
              <mxPoint x="720" y="30" />
              <mxPoint x="414" y="30" />
            </Array>
          </mxGeometry>
        </mxCell>
        <mxCell id="vRpasQC0jQgQnMMgfVWq-20" value="" style="fontColor=#0066CC;verticalAlign=top;verticalLabelPosition=bottom;labelPosition=center;align=center;html=1;outlineConnect=0;fillColor=#CCCCCC;strokeColor=#6881B3;gradientColor=none;gradientDirection=north;strokeWidth=2;shape=mxgraph.networks.server;" vertex="1" parent="1">
          <mxGeometry x="700" y="95" width="45" height="70" as="geometry" />
        </mxCell>
        <mxCell id="vRpasQC0jQgQnMMgfVWq-22" value="" style="fontColor=#0066CC;verticalAlign=top;verticalLabelPosition=bottom;labelPosition=center;align=center;html=1;outlineConnect=0;fillColor=#CCCCCC;strokeColor=#6881B3;gradientColor=none;gradientDirection=north;strokeWidth=2;shape=mxgraph.networks.server;" vertex="1" parent="1">
          <mxGeometry x="383.5" y="90" width="60" height="70" as="geometry" />
        </mxCell>
        <mxCell id="vRpasQC0jQgQnMMgfVWq-25" value="UDP/53&lt;br&gt;TCP/53" style="text;html=1;align=center;verticalAlign=middle;resizable=0;points=[];autosize=1;" vertex="1" parent="1">
          <mxGeometry x="387" y="170" width="60" height="30" as="geometry" />
        </mxCell>
      </root>
    </mxGraphModel>
  </diagram>
</mxfile>
